<svg xmlns="http://www.w3.org/2000/svg" width="26" height="26" viewBox="0 0 26 26" fill="none">
    <g clip-path="url(#clip0_177_43956)">
        <path fill-rule="evenodd" clip-rule="evenodd" d="M7.12664 0.353638H18.3109C22.2582 0.353638 25.2187 3.35364 25.2187 7.0203V18.3536C25.2187 22.3536 22.2582 25.3536 18.3109 25.3536H7.12664C3.50822 25.3536 0.21875 22.3536 0.21875 18.3536V7.0203C0.21875 3.35364 3.50822 0.353638 7.12664 0.353638ZM20.9424 6.0203C20.9424 7.0203 20.2845 7.68697 19.2977 7.68697C18.6398 7.68697 17.9819 7.0203 17.9819 6.0203C17.9819 5.35364 18.6398 4.68697 19.2977 4.68697C20.2845 4.68697 20.9424 5.35364 20.9424 6.0203ZM12.7187 17.0203C10.4161 17.0203 8.44243 15.0203 8.44243 12.687C8.44243 10.3536 10.4161 8.68697 12.7187 8.68697C15.0214 8.68697 16.9951 10.3536 16.9951 12.687C16.9951 15.0203 15.0214 17.0203 12.7187 17.0203ZM12.7187 6.35364C9.10033 6.35364 6.46875 9.35364 6.46875 12.687C6.46875 16.3536 9.10033 19.3536 12.7187 19.3536C16.3372 19.3536 18.9687 16.3536 18.9687 12.687C18.9687 9.35364 16.3372 6.35364 12.7187 6.35364Z" fill="white"/>
    </g>
    <defs>
        <clipPath id="clip0_177_43956">
            <rect width="25" height="25" fill="white" transform="translate(0.21875 0.353638)"/>
        </clipPath>
    </defs>
</svg>