<svg xmlns="http://www.w3.org/2000/svg" width="202" height="18" viewBox="0 0 202 18" fill="none">
    <path d="M10.6565 2.23782V0.886682C10.6565 0.71779 10.5326 0.591123 10.3674 0.591123H0.289129C0.123912 0.591123 0 0.71779 0 0.886682V2.23782C0 2.40671 0.123912 2.53338 0.289129 2.53338H4.29565V13.9758C4.29565 14.1447 4.41956 14.2714 4.58478 14.2714H6.07174C6.23696 14.2714 6.36087 14.1447 6.36087 13.9758V2.53338H10.3674C10.5326 2.53338 10.6565 2.40671 10.6565 2.23782ZM14.9522 3.80007C12.1848 3.80007 10.1196 6.08011 10.1196 9.16239C10.1196 12.2024 12.2674 14.5247 15.1174 14.5247C16.8109 14.5247 18.0913 13.9336 19.2478 12.6247C19.2891 12.5825 19.3304 12.498 19.3304 12.4136C19.3304 12.3291 19.2891 12.2447 19.2478 12.2024L18.3804 11.4002C18.2565 11.3158 18.0913 11.3158 17.9674 11.4002C17.1413 12.2869 16.2739 12.6669 15.2 12.6669C13.6304 12.6669 12.4739 11.6113 12.1848 10.0068H19.3717C19.537 10.0068 19.6609 9.88018 19.6609 9.75351V9.20461C19.6609 6.03789 17.7196 3.80007 14.9522 3.80007V3.80007ZM12.1848 8.27571C12.4739 6.67123 13.5891 5.61566 14.9522 5.61566C16.6457 5.61566 17.4304 6.96679 17.637 8.27571H12.1848ZM25.9391 3.88452C24.4109 3.88452 23.337 4.30675 22.387 4.72898C22.263 4.7712 22.1804 4.94009 22.2217 5.10898L22.6348 6.29123C22.6761 6.37567 22.7174 6.41789 22.8 6.46012C22.8826 6.50234 22.9652 6.50234 23.0478 6.46012C24.0391 5.99566 24.8652 5.78455 25.8152 5.78455C26.9304 5.78455 28.2935 6.16456 28.3348 8.02237C27.6326 7.85348 26.8478 7.68458 25.7326 7.68458C23.0478 7.68458 21.3957 8.9935 21.3957 11.1469V11.1891C21.3957 13.3425 23.337 14.4825 25.237 14.4825C26.6826 14.4825 27.7152 13.9336 28.3761 13.3002V14.018C28.3761 14.1869 28.5 14.3136 28.6652 14.3136H30.0696C30.2348 14.3136 30.3587 14.1869 30.3587 14.018V8.10681C30.3587 6.7979 29.987 5.78455 29.2848 5.06676C28.4587 4.26452 27.3435 3.88452 25.9391 3.88452V3.88452ZM25.4435 12.7513C24.4522 12.7513 23.337 12.2447 23.337 11.1046V11.0624C23.337 10.0491 24.287 9.41573 25.8152 9.41573C26.8891 9.41573 27.7152 9.58462 28.2935 9.75351V10.4291C28.3348 11.738 27.0957 12.7513 25.4435 12.7513ZM40.3957 11.2735C40.3543 11.2313 40.2717 11.1891 40.1891 11.1891C40.1065 11.1891 40.0239 11.2313 39.9826 11.2735C39.1565 12.2024 38.2891 12.6247 37.2978 12.6247C35.5217 12.6247 34.1174 11.1046 34.1174 9.16239V9.12017C34.1174 7.17791 35.4804 5.65788 37.2152 5.65788C38.4543 5.65788 39.2391 6.33345 39.9 7.00902C39.9413 7.05124 40.0239 7.09346 40.1065 7.09346C40.1891 7.09346 40.2717 7.05124 40.313 7.00902L41.263 5.99567C41.387 5.869 41.387 5.7001 41.263 5.61566C40.4783 4.7712 39.3217 3.80007 37.2565 3.80007C34.4065 3.80007 32.0935 6.20678 32.0935 9.16239V9.20461C32.0935 12.118 34.4065 14.5247 37.2565 14.5247C39.3217 14.5247 40.5196 13.4691 41.3457 12.5402C41.4696 12.4136 41.4283 12.2447 41.3457 12.118L40.3957 11.2735V11.2735ZM48.1609 3.80007C46.963 3.80007 45.9717 4.2223 45.187 5.10898V0.295561C45.187 0.126669 45.063 0 44.8978 0H43.4935C43.3283 0 43.2043 0.126669 43.2043 0.295561V13.9758C43.2043 14.1447 43.3283 14.2714 43.4935 14.2714H44.8978C45.063 14.2714 45.187 14.1447 45.187 13.9758V8.4446C45.187 6.84012 46.2196 5.7001 47.7478 5.7001C49.2348 5.7001 50.1022 6.67123 50.1022 8.31793V13.9758C50.1022 14.1447 50.2261 14.2714 50.3913 14.2714H51.7957C51.9609 14.2714 52.0848 14.1447 52.0848 13.9758V7.93792C52.0435 5.44677 50.5152 3.80007 48.1609 3.80007V3.80007ZM58.6109 3.80007C55.8435 3.80007 53.7783 6.08011 53.7783 9.16239C53.7783 12.2024 55.9261 14.5247 58.7761 14.5247C60.4696 14.5247 61.75 13.9336 62.9065 12.6247C62.9478 12.5825 62.9891 12.498 62.9891 12.4136C62.9891 12.3291 62.9478 12.2447 62.9065 12.2024L62.0391 11.4002C61.9152 11.3158 61.75 11.3158 61.6261 11.4002C60.8 12.2869 59.9326 12.6669 58.8587 12.6669C57.2891 12.6669 56.1326 11.6113 55.8435 10.0068H63.0304C63.1957 10.0068 63.3196 9.88018 63.3196 9.75351V9.20461C63.3196 6.03789 61.3783 3.80007 58.6109 3.80007V3.80007ZM55.8435 8.27571C56.1326 6.67123 57.2478 5.61566 58.6109 5.61566C60.3043 5.61566 61.0891 6.96679 61.2957 8.27571H55.8435ZM70.5891 3.92674C69.1435 3.88451 67.6565 4.2223 66.9957 5.3201V4.30675C66.9957 4.13785 66.8717 4.01118 66.7065 4.01118H65.3022C65.137 4.01118 65.013 4.13785 65.013 4.30675V14.018C65.013 14.1869 65.137 14.3136 65.3022 14.3136H66.7065C66.8717 14.3136 66.9957 14.1869 66.9957 14.018V10.1757C66.9957 7.64236 68.3587 5.91122 70.4652 5.91122H70.5891C70.7543 5.91122 70.8783 5.78455 70.8783 5.61566V4.26452C70.8783 4.09563 70.7543 3.92674 70.5891 3.92674V3.92674ZM76.4957 8.19126C75.3391 7.81125 74.2652 7.51569 74.2652 6.7979V6.75568C74.2652 6.08011 74.8848 5.65788 75.7935 5.65788C76.6196 5.65788 77.5696 5.99566 78.437 6.54456C78.5196 6.58679 78.5609 6.58679 78.6435 6.58679C78.7261 6.58679 78.7674 6.50234 78.8087 6.46012L79.4696 5.36232C79.5522 5.23565 79.5109 5.06676 79.387 4.98231C78.3544 4.26452 77.0326 3.88452 75.8348 3.88452C73.7696 3.88452 72.3239 5.1512 72.3239 6.96679C72.3239 8.9935 74.2652 9.58462 75.6696 9.96463C76.9087 10.3024 77.8174 10.6402 77.8174 11.4002V11.4424C77.8174 12.2024 77.1565 12.6669 76.1239 12.6669C75.0913 12.6669 74.0174 12.2447 73.0261 11.4847C72.9848 11.4424 72.9022 11.4002 72.8196 11.4424C72.737 11.4424 72.6957 11.4847 72.6131 11.5691L71.9109 12.5825C71.8283 12.7091 71.8283 12.878 71.9522 12.9625C73.0674 13.8914 74.637 14.4403 76.0413 14.4403C78.1891 14.4403 79.7174 13.1313 79.7174 11.2313V11.1891C79.7587 9.20461 77.8174 8.57127 76.4957 8.19126V8.19126ZM132.257 2.23782V0.886682C132.257 0.71779 132.133 0.591123 131.967 0.591123H121.889C121.724 0.591123 121.6 0.71779 121.6 0.886682V2.23782C121.6 2.40671 121.724 2.53338 121.889 2.53338H125.896V13.9758C125.896 14.1447 126.02 14.2714 126.185 14.2714H127.672C127.837 14.2714 127.961 14.1447 127.961 13.9758V2.53338H131.967C132.133 2.53338 132.257 2.40671 132.257 2.23782ZM136.552 3.80007C133.785 3.80007 131.72 6.08011 131.72 9.16239C131.72 12.2024 133.867 14.5247 136.717 14.5247C138.411 14.5247 139.691 13.9336 140.848 12.6247C140.889 12.5825 140.93 12.498 140.93 12.4136C140.93 12.3291 140.889 12.2447 140.848 12.2024L139.98 11.4002C139.857 11.3158 139.691 11.3158 139.567 11.4002C138.741 12.2869 137.874 12.6669 136.8 12.6669C135.23 12.6669 134.074 11.6113 133.785 10.0068H140.972C141.137 10.0068 141.261 9.88018 141.261 9.75351V9.20461C141.261 6.03789 139.32 3.80007 136.552 3.80007V3.80007ZM133.785 8.27571C134.074 6.67123 135.189 5.61566 136.552 5.61566C138.246 5.61566 139.03 6.96679 139.237 8.27571H133.785ZM147.498 3.88452C145.97 3.88452 144.896 4.30675 143.946 4.72898C143.822 4.7712 143.739 4.94009 143.78 5.10898L144.193 6.29123C144.235 6.37567 144.276 6.41789 144.359 6.46012C144.441 6.50234 144.524 6.50234 144.607 6.46012C145.598 5.99566 146.424 5.78455 147.374 5.78455C148.489 5.78455 149.852 6.16456 149.893 8.02237C149.191 7.85348 148.407 7.68458 147.291 7.68458C144.607 7.68458 142.954 8.9935 142.954 11.1469V11.1891C142.954 13.3425 144.896 14.4825 146.796 14.4825C148.241 14.4825 149.274 13.9336 149.935 13.3002V14.018C149.935 14.1869 150.059 14.3136 150.224 14.3136H151.628C151.793 14.3136 151.917 14.1869 151.917 14.018V8.10681C151.917 6.7979 151.546 5.78455 150.843 5.06676C150.059 4.26452 148.902 3.88452 147.498 3.88452V3.88452ZM147.043 12.7513C146.052 12.7513 144.937 12.2447 144.937 11.1046V11.0624C144.937 10.0491 145.887 9.41573 147.415 9.41573C148.489 9.41573 149.315 9.58462 149.893 9.75351V10.4291C149.893 11.738 148.696 12.7513 147.043 12.7513ZM161.996 11.2735C161.954 11.2313 161.872 11.1891 161.789 11.1891C161.707 11.1891 161.624 11.2313 161.583 11.2735C160.757 12.2024 159.889 12.6247 158.898 12.6247C157.122 12.6247 155.717 11.1046 155.717 9.16239V9.12017C155.717 7.17791 157.08 5.65788 158.815 5.65788C160.054 5.65788 160.839 6.33345 161.5 7.00902C161.541 7.05124 161.624 7.09346 161.707 7.09346C161.789 7.09346 161.872 7.05124 161.913 7.00902L162.863 5.99567C162.987 5.869 162.987 5.7001 162.863 5.61566C162.078 4.7712 160.922 3.80007 158.857 3.80007C156.007 3.80007 153.693 6.20678 153.693 9.16239V9.20461C153.693 12.118 156.007 14.5247 158.857 14.5247C160.922 14.5247 162.12 13.4691 162.946 12.5402C163.07 12.4136 163.028 12.2447 162.946 12.118L161.996 11.2735V11.2735ZM169.72 3.80007C168.522 3.80007 167.53 4.2223 166.746 5.10898V0.295561C166.746 0.126669 166.622 0 166.457 0H165.052C164.887 0 164.763 0.126669 164.763 0.295561V13.9758C164.763 14.1447 164.887 14.2714 165.052 14.2714H166.457C166.622 14.2714 166.746 14.1447 166.746 13.9758V8.4446C166.746 6.84012 167.778 5.7001 169.307 5.7001C170.793 5.7001 171.661 6.67123 171.661 8.31793V13.9758C171.661 14.1447 171.785 14.2714 171.95 14.2714H173.354C173.52 14.2714 173.643 14.1447 173.643 13.9758V7.93792C173.643 5.44677 172.115 3.80007 169.72 3.80007V3.80007ZM180.211 3.80007C177.443 3.80007 175.378 6.08011 175.378 9.16239C175.378 12.2024 177.526 14.5247 180.376 14.5247C182.07 14.5247 183.35 13.9336 184.507 12.6247C184.548 12.5825 184.589 12.498 184.589 12.4136C184.589 12.3291 184.548 12.2447 184.507 12.2024L183.639 11.4002C183.515 11.3158 183.35 11.3158 183.226 11.4002C182.4 12.2869 181.533 12.6669 180.459 12.6669C178.889 12.6669 177.733 11.6113 177.443 10.0068H184.63C184.796 10.0068 184.92 9.88018 184.92 9.75351V9.20461C184.92 6.03789 182.978 3.80007 180.211 3.80007V3.80007ZM177.443 8.27571C177.733 6.67123 178.848 5.61566 180.211 5.61566C181.904 5.61566 182.689 6.96679 182.896 8.27571H177.443ZM192.189 3.92674C190.743 3.88451 189.257 4.2223 188.596 5.3201V4.30675C188.596 4.13785 188.472 4.01118 188.307 4.01118H186.902C186.737 4.01118 186.613 4.13785 186.613 4.30675V14.018C186.613 14.1869 186.737 14.3136 186.902 14.3136H188.307C188.472 14.3136 188.596 14.1869 188.596 14.018V10.1757C188.596 7.64236 189.959 5.91122 192.065 5.91122H192.189C192.354 5.91122 192.478 5.78455 192.478 5.61566V4.26452C192.437 4.09563 192.313 3.92674 192.189 3.92674V3.92674ZM198.096 8.19126C196.939 7.81125 195.865 7.51569 195.865 6.7979V6.75568C195.865 6.08011 196.485 5.65788 197.393 5.65788C198.22 5.65788 199.17 5.99566 200.037 6.54456C200.12 6.58679 200.161 6.58679 200.243 6.58679C200.326 6.58679 200.367 6.50234 200.409 6.46012L201.07 5.36232C201.152 5.23565 201.111 5.06676 200.987 4.98231C199.954 4.26452 198.633 3.88452 197.435 3.88452C195.37 3.88452 193.924 5.1512 193.924 6.96679C193.924 8.9935 195.865 9.58462 197.27 9.96463C198.509 10.3024 199.417 10.6402 199.417 11.4002V11.4424C199.417 12.2024 198.757 12.6669 197.724 12.6669C196.691 12.6669 195.617 12.2447 194.626 11.4847C194.585 11.4424 194.502 11.4002 194.42 11.4424C194.337 11.4424 194.296 11.4847 194.213 11.5691L193.511 12.5825C193.428 12.7091 193.428 12.878 193.552 12.9625C194.667 13.8914 196.237 14.4403 197.641 14.4403C199.789 14.4403 201.317 13.1313 201.317 11.2313V11.1891C201.359 9.20461 199.376 8.57127 198.096 8.19126ZM91.5717 0.591123H86.7804C86.6152 0.591123 86.4913 0.71779 86.4913 0.886682V14.018C86.4913 14.1869 86.6152 14.3136 86.7804 14.3136H88.2261C88.3913 14.3136 88.5152 14.1869 88.5152 14.018V9.66907H91.3652C94.5457 9.66907 96.6935 7.81125 96.6935 5.06676V5.02454C96.6522 2.32227 94.6696 0.591123 91.5717 0.591123V0.591123ZM91.3652 7.72681H88.4739V2.53338H91.4478C93.4717 2.53338 94.6283 3.46228 94.6283 5.10898V5.15121C94.6283 6.71346 93.3478 7.72681 91.3652 7.72681V7.72681ZM102.104 3.88452C100.576 3.88452 99.5022 4.30675 98.5522 4.72898C98.4283 4.7712 98.3457 4.94009 98.387 5.10898L98.8 6.29123C98.8413 6.37567 98.8826 6.41789 98.9652 6.46012C99.0478 6.50234 99.1304 6.50234 99.2131 6.46012C100.204 5.99566 101.03 5.78455 101.98 5.78455C103.096 5.78455 104.459 6.16456 104.5 8.02237C103.798 7.85348 103.013 7.68458 101.898 7.68458C99.2131 7.68458 97.5609 8.9935 97.5609 11.1469V11.1891C97.5609 13.3425 99.5022 14.4825 101.402 14.4825C102.848 14.4825 103.88 13.9336 104.541 13.3002V14.018C104.541 14.1869 104.665 14.3136 104.83 14.3136H106.235C106.4 14.3136 106.524 14.1869 106.524 14.018V8.10681C106.524 6.7979 106.152 5.78455 105.45 5.06676C104.624 4.26452 103.509 3.88452 102.104 3.88452V3.88452ZM101.65 12.7513C100.659 12.7513 99.5435 12.2447 99.5435 11.1046V11.0624C99.5435 10.0491 100.493 9.41573 102.022 9.41573C103.096 9.41573 103.922 9.58462 104.5 9.75351V10.4291C104.5 11.738 103.261 12.7513 101.65 12.7513ZM117.676 4.01118H116.189C116.065 4.01118 115.983 4.09563 115.941 4.18008L113.133 11.6113L109.952 4.18008C109.911 4.05341 109.787 4.01118 109.704 4.01118H108.135C108.052 4.01118 107.928 4.05341 107.887 4.13785C107.846 4.2223 107.846 4.30675 107.887 4.43341L112.141 13.9758C111.604 15.2425 111.109 15.4958 110.489 15.4958C109.952 15.4958 109.58 15.4114 109.126 15.1581C109.043 15.1158 108.961 15.1158 108.878 15.1581C108.796 15.2003 108.754 15.2425 108.713 15.3269L108.217 16.467C108.176 16.5936 108.217 16.7625 108.341 16.847C109.085 17.227 109.704 17.3536 110.489 17.3536C112.1 17.3536 113.091 16.5092 113.917 14.4403L117.883 4.43341C117.924 4.34897 117.924 4.2223 117.841 4.18008C117.841 4.05341 117.759 4.01118 117.676 4.01118Z" fill="white"/>
</svg>