<svg xmlns="http://www.w3.org/2000/svg" width="26" height="26" viewBox="0 0 26 26" fill="none">
    <g clip-path="url(#clip0_177_43958)">
        <path fill-rule="evenodd" clip-rule="evenodd" d="M12.7188 0.353638C5.77431 0.353638 0.21875 5.90919 0.21875 12.8536C0.21875 18.1314 3.55208 22.5759 8.27431 24.5203C7.99653 23.4092 7.99653 22.0203 8.27431 20.9092C8.55208 19.7981 9.66319 14.7981 9.66319 14.7981C9.66319 14.7981 9.38542 13.9647 9.38542 12.8536C9.38542 11.187 10.2188 9.79808 11.6076 9.79808C12.7188 9.79808 13.2743 10.6314 13.2743 11.4647C13.2743 12.5759 12.441 14.2425 12.1632 15.6314C11.8854 17.0203 12.7188 17.8536 13.8299 17.8536C16.0521 17.8536 17.9965 15.6314 17.9965 12.2981C17.9965 9.24253 15.7743 7.29808 12.7188 7.29808C9.10764 7.29808 7.16319 9.79808 7.16319 12.5759C7.16319 13.687 7.44097 14.7981 7.99653 15.3536C7.99653 15.6314 7.99653 15.6314 7.99653 15.9092C7.99653 16.187 7.71875 17.0203 7.71875 17.2981C7.71875 17.5759 7.44097 17.5759 7.16319 17.2981C5.77431 16.7425 4.66319 14.5203 4.66319 12.5759C4.66319 8.68697 7.71875 5.07586 12.9965 5.07586C17.1632 5.07586 20.7743 8.13142 20.7743 12.2981C20.7743 16.4647 17.9965 20.0759 14.1076 20.0759C12.9965 20.0759 11.6076 19.2425 11.3299 18.4092C11.3299 18.4092 10.7743 20.9092 10.4965 21.4647C10.2188 22.5759 9.38542 23.9647 9.10764 24.7981C10.2188 25.0759 11.3299 25.3536 12.7188 25.3536C19.6632 25.3536 25.2188 19.7981 25.2188 12.8536C25.2188 5.90919 19.6632 0.353638 12.7188 0.353638Z" fill="white"/>
    </g>
    <defs>
        <clipPath id="clip0_177_43958">
            <rect width="25" height="25" fill="white" transform="translate(0.21875 0.353638)"/>
        </clipPath>
    </defs>
</svg>