<svg xmlns="http://www.w3.org/2000/svg" width="27" height="23" viewBox="0 0 27 23" fill="none">
    <path fill-rule="evenodd" clip-rule="evenodd" d="M26.2652 1.39859C25.2634 1.73178 23.9277 2.39815 22.592 2.73134C20.2545 -0.933729 12.5741 1.0654 13.242 7.72916C7.89911 7.39598 5.56161 5.39685 1.88839 2.06496C0.552679 5.73003 0.886607 7.39598 3.55804 9.06192C2.55625 9.3951 1.88839 9.06192 1.22054 8.72873C1.22054 11.3942 3.22411 13.7266 5.56161 14.0597C4.89375 14.3929 3.89196 14.0597 3.22411 14.0597C3.55804 16.3921 5.89554 17.7248 8.23304 18.058C6.56339 19.7239 2.55625 20.3903 0.21875 20.3903L0.552679 20.7235C9.56875 26.0545 22.592 20.7235 24.2616 8.72873C24.2616 8.06235 24.2616 7.06279 24.2616 6.39641C24.9295 5.73003 26.5991 4.39728 26.933 3.39772C26.2652 3.73091 24.9295 4.06409 23.9277 4.39728C24.9295 3.39772 25.9312 2.39815 26.2652 1.39859Z" fill="white"/>
</svg>