<svg xmlns="http://www.w3.org/2000/svg" width="12" height="12" viewBox="0 0 16 16" fill="none">
    <mask id="mask0_218_17288" style="mask-type:alpha" maskUnits="userSpaceOnUse" x="2" y="2" width="12" height="12">
        <path d="M14 7.18182V8.81818C14 9.04545 13.9205 9.23864 13.7614 9.39773C13.6023 9.55682 13.4091 9.63636 13.1818 9.63636H9.63636V13.1818C9.63636 13.4091 9.55682 13.6023 9.39773 13.7614C9.23864 13.9205 9.04545 14 8.81818 14H7.18182C6.95455 14 6.76136 13.9205 6.60227 13.7614C6.44318 13.6023 6.36364 13.4091 6.36364 13.1818V9.63636H2.81818C2.59091 9.63636 2.39773 9.55682 2.23864 9.39773C2.07955 9.23864 2 9.04545 2 8.81818V7.18182C2 6.95455 2.07955 6.76136 2.23864 6.60227C2.39773 6.44318 2.59091 6.36364 2.81818 6.36364H6.36364V2.81818C6.36364 2.59091 6.44318 2.39773 6.60227 2.23864C6.76136 2.07955 6.95455 2 7.18182 2H8.81818C9.04545 2 9.23864 2.07955 9.39773 2.23864C9.55682 2.39773 9.63636 2.59091 9.63636 2.81818V6.36364H13.1818C13.4091 6.36364 13.6023 6.44318 13.7614 6.60227C13.9205 6.76136 14 6.95455 14 7.18182Z" fill="black"/>
    </mask>
    <g mask="url(#mask0_218_17288)">
        <rect width="16" height="16" fill="#898AAD"/>
    </g>
</svg>