<svg xmlns="http://www.w3.org/2000/svg" width="16" height="16" viewBox="0 0 16 16" fill="none">
    <mask id="mask0_218_17233" style="mask-type:alpha" maskUnits="userSpaceOnUse" x="4" y="4" width="8" height="8">
        <path fill-rule="evenodd" clip-rule="evenodd" d="M10.8571 10.8572C10.5941 11.1202 10.1678 11.1202 9.90489 10.8572L7.99984 8.95219L6.09479 10.8572C5.83185 11.1202 5.40554 11.1202 5.1426 10.8572C4.87966 10.5943 4.87966 10.168 5.1426 9.90506L7.04765 8.00001L5.1426 6.09495C4.87966 5.83202 4.87966 5.40571 5.1426 5.14277C5.40554 4.87983 5.83185 4.87983 6.09479 5.14277L7.99984 7.04782L9.90489 5.14277C10.1678 4.87983 10.5941 4.87983 10.8571 5.14277C11.12 5.40571 11.12 5.83202 10.8571 6.09495L8.95203 8.00001L10.8571 9.90506C11.12 10.168 11.12 10.5943 10.8571 10.8572Z" fill="black"/>
    </mask>
    <g mask="url(#mask0_218_17233)">
        <rect width="16" height="16" fill="#222222"/>
    </g>
</svg>