<svg width="16" height="17" viewBox="0 0 16 17" fill="none" xmlns="http://www.w3.org/2000/svg">
<mask id="mask0_5701_218233" style="mask-type:alpha" maskUnits="userSpaceOnUse" x="1" y="1" width="15" height="15">
<path d="M9.19922 5.175C9.19922 4.69175 8.80746 4.3 8.32422 4.3C7.84097 4.3 7.44922 4.69175 7.44922 5.175C7.44922 5.65824 7.84097 6.05 8.32422 6.05C8.80746 6.05 9.19922 5.65824 9.19922 5.175Z" fill="black"/>
<path d="M7.09922 7.45C7.09922 7.0634 7.41262 6.75 7.79922 6.75H8.49922C8.88582 6.75 9.19922 7.0634 9.19922 7.45V10.95H9.37422C9.76082 10.95 10.0742 11.2634 10.0742 11.65C10.0742 12.0366 9.76082 12.35 9.37422 12.35H7.62422C7.23762 12.35 6.92422 12.0366 6.92422 11.65C6.92422 11.2634 7.23762 10.95 7.62422 10.95H7.79922V8.15C7.41262 8.15 7.09922 7.8366 7.09922 7.45Z" fill="black"/>
<path fill-rule="evenodd" clip-rule="evenodd" d="M4.43523 2.67971C5.58637 1.91054 6.93975 1.5 8.32422 1.5C9.24347 1.5 10.1537 1.68106 11.003 2.03284C11.8523 2.38463 12.624 2.90024 13.274 3.55025C13.924 4.20026 14.4396 4.97194 14.7914 5.82121C15.1432 6.67049 15.3242 7.58075 15.3242 8.5C15.3242 9.88447 14.9137 11.2378 14.1445 12.389C13.3753 13.5401 12.2821 14.4373 11.003 14.9672C9.72392 15.497 8.31646 15.6356 6.95859 15.3655C5.60072 15.0954 4.35344 14.4287 3.37447 13.4497C2.39551 12.4708 1.72882 11.2235 1.45872 9.86563C1.18863 8.50776 1.32725 7.1003 1.85707 5.82121C2.38688 4.54213 3.28409 3.44888 4.43523 2.67971ZM5.21303 13.1562C6.13394 13.7716 7.21665 14.1 8.32422 14.1C9.80943 14.1 11.2338 13.51 12.284 12.4598C13.3342 11.4096 13.9242 9.98521 13.9242 8.5C13.9242 7.39242 13.5958 6.30972 12.9804 5.38881C12.3651 4.46789 11.4905 3.75012 10.4672 3.32627C9.44398 2.90242 8.31801 2.79153 7.23172 3.0076C6.14542 3.22368 5.1476 3.75703 4.36442 4.5402C3.58125 5.32338 3.0479 6.3212 2.83182 7.40749C2.61575 8.49379 2.72665 9.61976 3.1505 10.643C3.57435 11.6663 4.29211 12.5409 5.21303 13.1562Z" fill="black"/>
</mask>
<g mask="url(#mask0_5701_218233)">
<rect y="0.5" width="16" height="16" fill="#767676"/>
</g>
</svg>
