<svg width="16" height="16" viewBox="0 0 16 16" fill="none" xmlns="http://www.w3.org/2000/svg">
<path fill-rule="evenodd" clip-rule="evenodd" d="M4.49079 0.567871H11.3473C13.7673 0.567871 15.5823 2.40704 15.5823 4.65491V11.6029C15.5823 14.0551 13.7673 15.8943 11.3473 15.8943H4.49079C2.27249 15.8943 0.255859 14.0551 0.255859 11.6029V4.65491C0.255859 2.40704 2.27249 0.567871 4.49079 0.567871ZM12.9606 4.04186C12.9606 4.65491 12.5573 5.06362 11.9523 5.06362C11.549 5.06362 11.1457 4.65491 11.1457 4.04186C11.1457 3.63315 11.549 3.22445 11.9523 3.22445C12.5573 3.22445 12.9606 3.63315 12.9606 4.04186ZM7.91907 10.7855C6.50742 10.7855 5.29744 9.55937 5.29744 8.1289C5.29744 6.69844 6.50742 5.67668 7.91907 5.67668C9.33071 5.67668 10.5407 6.69844 10.5407 8.1289C10.5407 9.55937 9.33071 10.7855 7.91907 10.7855ZM7.91907 4.24621C5.70077 4.24621 4.08746 6.08538 4.08746 8.1289C4.08746 10.3768 5.70077 12.2159 7.91907 12.2159C10.1374 12.2159 11.7507 10.3768 11.7507 8.1289C11.7507 6.08538 10.1374 4.24621 7.91907 4.24621Z" fill="#767676"/>
</svg>
