<svg width="18" height="18" viewBox="0 0 18 18" fill="none" xmlns="http://www.w3.org/2000/svg">
<g clip-path="url(#clip0_6230_344133)">
<path fill-rule="evenodd" clip-rule="evenodd" d="M8.53128 0.716797C3.8009 0.716797 0.0166016 4.5011 0.0166016 9.23147C0.0166016 12.8266 2.28718 15.854 5.50384 17.1785C5.31462 16.4216 5.31462 15.4756 5.50384 14.7187C5.69305 13.9618 6.44991 10.556 6.44991 10.556C6.44991 10.556 6.2607 9.98833 6.2607 9.23147C6.2607 8.09618 6.82834 7.15011 7.77442 7.15011C8.53128 7.15011 8.90971 7.71775 8.90971 8.2854C8.90971 9.04226 8.34206 10.1775 8.15285 11.1236C7.96363 12.0697 8.53128 12.6373 9.28814 12.6373C10.8019 12.6373 12.1264 11.1236 12.1264 8.85304C12.1264 6.77168 10.6126 5.44717 8.53128 5.44717C6.07148 5.44717 4.74698 7.15011 4.74698 9.04226C4.74698 9.79912 4.93619 10.556 5.31462 10.9344C5.31462 11.1236 5.31462 11.1236 5.31462 11.3128C5.31462 11.5021 5.12541 12.0697 5.12541 12.2589C5.12541 12.4481 4.93619 12.4481 4.74698 12.2589C3.8009 11.8805 3.04404 10.3668 3.04404 9.04226C3.04404 6.39325 5.12541 3.93345 8.72049 3.93345C11.5587 3.93345 14.0185 6.01482 14.0185 8.85304C14.0185 11.6913 12.1264 14.1511 9.47735 14.1511C8.72049 14.1511 7.77442 13.5834 7.5852 13.0158C7.5852 13.0158 7.20677 14.7187 7.01756 15.0971C6.82834 15.854 6.2607 16.8001 6.07148 17.3677C6.82834 17.5569 7.5852 17.7461 8.53128 17.7461C13.2617 17.7461 17.0459 13.9618 17.0459 9.23147C17.0459 4.5011 13.2617 0.716797 8.53128 0.716797Z" fill="#767676"/>
</g>
<defs>
<clipPath id="clip0_6230_344133">
<rect width="17.0293" height="17.0293" fill="white" transform="translate(0.0166016 0.716797)"/>
</clipPath>
</defs>
</svg>
