<svg xmlns="http://www.w3.org/2000/svg" width="17" height="17" viewBox="0 0 17 17" fill="none">
    <mask id="mask0_7285_98257" style="mask-type:alpha" maskUnits="userSpaceOnUse" x="2" y="3" width="13" height="12">
        <path d="M13.6111 9.77333V5.49555C12.8287 5.91685 12.1204 6.1275 11.4861 6.1275C11.1065 6.1275 10.7708 6.05342 10.4792 5.90527C10.0162 5.67842 9.59028 5.50134 9.20139 5.37402C8.8125 5.24671 8.40046 5.18305 7.96528 5.18305C7.16435 5.18305 6.23148 5.47703 5.16667 6.065V10.2247C6.30093 9.70157 7.30324 9.44 8.17361 9.44C8.42824 9.44 8.66782 9.45736 8.89236 9.49208C9.1169 9.5268 9.34375 9.58699 9.57292 9.67263C9.80208 9.75828 9.98032 9.83004 10.1076 9.88791C10.235 9.94578 10.4259 10.0372 10.6806 10.1622L10.875 10.2594C11.0787 10.3613 11.3125 10.4122 11.5764 10.4122C12.1319 10.4122 12.8102 10.1993 13.6111 9.77333ZM4.27778 4.29416C4.27778 4.4562 4.23727 4.60435 4.15625 4.73861C4.07523 4.87287 3.96759 4.97935 3.83333 5.05805V13.8497C3.83333 13.9145 3.8125 13.9678 3.77083 14.0094C3.72917 14.0511 3.67593 14.0719 3.61111 14.0719H3.16667C3.10185 14.0719 3.04861 14.0511 3.00694 14.0094C2.96528 13.9678 2.94444 13.9145 2.94444 13.8497V5.05805C2.81019 4.97935 2.70255 4.87287 2.62153 4.73861C2.54051 4.60435 2.5 4.4562 2.5 4.29416C2.5 4.04879 2.58681 3.8393 2.76042 3.66569C2.93403 3.49208 3.14352 3.40527 3.38889 3.40527C3.63426 3.40527 3.84375 3.49208 4.01736 3.66569C4.19097 3.8393 4.27778 4.04879 4.27778 4.29416ZM14.5 4.73861V10.0372C14.5 10.2178 14.419 10.3497 14.2569 10.4331C14.2106 10.4562 14.1713 10.477 14.1389 10.4956C13.1296 11.0326 12.2755 11.3011 11.5764 11.3011C11.169 11.3011 10.8032 11.2201 10.4792 11.0581L10.2847 10.9608C9.98843 10.8081 9.75926 10.6969 9.59722 10.6275C9.43519 10.5581 9.22454 10.4909 8.96528 10.4261C8.70602 10.3613 8.44213 10.3289 8.17361 10.3289C7.70139 10.3289 7.15625 10.4307 6.53819 10.6344C5.92014 10.8381 5.3912 11.0743 4.95139 11.3428C4.88194 11.3844 4.80556 11.4053 4.72222 11.4053C4.64815 11.4053 4.57407 11.3868 4.5 11.3497C4.35185 11.2618 4.27778 11.1321 4.27778 10.9608V5.80805C4.27778 5.64601 4.34954 5.5187 4.49306 5.42611C4.65509 5.32888 4.83681 5.2305 5.03819 5.13097C5.23958 5.03143 5.50347 4.91106 5.82986 4.76986C6.15625 4.62865 6.50926 4.51407 6.88889 4.42611C7.26852 4.33814 7.62732 4.29416 7.96528 4.29416C8.4838 4.29416 8.96759 4.36592 9.41667 4.50944C9.86574 4.65296 10.3495 4.85203 10.8681 5.10666C11.044 5.19463 11.25 5.23861 11.4861 5.23861C12.0509 5.23861 12.7685 4.97935 13.6389 4.46083C13.7407 4.40527 13.8125 4.36592 13.8542 4.34277C13.9977 4.2687 14.1412 4.27333 14.2847 4.35666C14.4282 4.44925 14.5 4.57657 14.5 4.73861Z" fill="black"/>
    </mask>
    <g mask="url(#mask0_7285_98257)">
        <rect x="0.5" y="0.738281" width="16" height="16" fill="#222222"/>
    </g>
</svg>