<svg xmlns="http://www.w3.org/2000/svg" width="55" height="56" viewBox="0 0 55 56" fill="none">
    <rect width="55" height="55" transform="translate(0 0.5)" fill="white"/>
    <mask id="mask0_23_17550" style="mask-type:alpha" maskUnits="userSpaceOnUse" x="6" y="7" width="43" height="42">
        <path d="M41.3574 23.6494C41.3574 23.1481 41.1963 22.7363 40.874 22.4141L38.4302 19.9971C38.09 19.6569 37.6872 19.4868 37.2217 19.4868C36.7562 19.4868 36.3534 19.6569 36.0132 19.9971L25.0562 30.9272L18.9868 24.8579C18.6466 24.5177 18.2438 24.3477 17.7783 24.3477C17.3128 24.3477 16.91 24.5177 16.5698 24.8579L14.126 27.2749C13.8037 27.5972 13.6426 28.009 13.6426 28.5103C13.6426 28.9937 13.8037 29.3965 14.126 29.7188L23.8477 39.4404C24.1878 39.7806 24.5907 39.9507 25.0562 39.9507C25.5396 39.9507 25.9513 39.7806 26.2915 39.4404L40.874 24.8579C41.1963 24.5356 41.3574 24.1328 41.3574 23.6494ZM48.125 28C48.125 31.7419 47.203 35.1928 45.3589 38.3528C43.5148 41.5128 41.0128 44.0148 37.8528 45.8589C34.6928 47.703 31.2419 48.625 27.5 48.625C23.7581 48.625 20.3072 47.703 17.1472 45.8589C13.9872 44.0148 11.4852 41.5128 9.64111 38.3528C7.79704 35.1928 6.875 31.7419 6.875 28C6.875 24.2581 7.79704 20.8072 9.64111 17.6472C11.4852 14.4872 13.9872 11.9852 17.1472 10.1411C20.3072 8.29704 23.7581 7.375 27.5 7.375C31.2419 7.375 34.6928 8.29704 37.8528 10.1411C41.0128 11.9852 43.5148 14.4872 45.3589 17.6472C47.203 20.8072 48.125 24.2581 48.125 28Z" fill="black"/>
    </mask>
    <g mask="url(#mask0_23_17550)">
        <rect y="0.5" width="55" height="55" fill="#5DD89D"/>
    </g>
</svg>