<svg class="tpt1134-star star__visible" xmlns="http://www.w3.org/2000/svg" width="100%" height="100%" viewBox="0 0 14 15" fill="none">
    <path fill-rule="evenodd" clip-rule="evenodd" d="M10.3129 14.388L7.01784 12.5514C7.00893 12.5464 6.99747 12.5464 6.98793 12.5514L3.69536 14.3912C3.0539 14.7495 2.30299 14.1716 2.42517 13.4124L3.05263 9.51979C3.05454 9.50833 3.05072 9.49688 3.04309 9.48924L0.23607 6.58805C-0.225933 6.11013 0.028614 5.2784 0.666254 5.17913L4.54364 4.57967C4.55382 4.57776 4.56337 4.57076 4.56782 4.56122L6.21347 1.01792C6.53356 0.327465 7.46138 0.327465 7.78211 1.01729L9.43094 4.55867C9.43539 4.56885 9.44494 4.57585 9.45512 4.57712L13.3325 5.1734C13.9708 5.2714 14.226 6.10313 13.7646 6.58104L10.9608 9.48542C10.9525 9.4937 10.9493 9.50452 10.9512 9.51597L11.5819 13.408C11.7053 14.1672 10.955 14.7456 10.3129 14.388Z" fill="#3B81FD"/>
</svg>