<svg xmlns="http://www.w3.org/2000/svg" width="24" height="24" viewBox="0 0 24 24" fill="none">
    <mask id="mask0_409_14144" style="mask-type:alpha" maskUnits="userSpaceOnUse" x="4" y="4" width="11" height="15">
        <path d="M8.692 18.6H10.74V17.128C13.012 16.84 14.356 15.544 14.356 13.48C14.356 9.512 8.42 10.376 8.42 9.368C8.42 9.096 8.596 8.888 9.236 8.888C10.244 8.888 11.444 9.24 12.372 9.944L14.1 7.656C13.156 6.888 12.02 6.424 10.74 6.248V4.712H8.692V6.232C6.34 6.536 5.14 8.088 5.14 9.704C5.14 13.912 11.092 12.872 11.092 13.896C11.092 14.312 10.516 14.472 9.908 14.472C8.468 14.472 7.268 13.864 6.468 13.096L4.788 15.496C5.732 16.36 6.98 16.968 8.692 17.128V18.6Z" fill="#898AAD"/>
    </mask>
    <g mask="url(#mask0_409_14144)">
        <rect width="24" height="24" fill="#898AAD"/>
    </g>
</svg>